<?xml version="1.0" encoding="UTF-8" standalone="no"?><svg xmlns="http://www.w3.org/2000/svg" xmlns:xlink="http://www.w3.org/1999/xlink" contentScriptType="application/ecmascript" contentStyleType="text/css" height="278px" preserveAspectRatio="none" style="width:283px;height:278px;" version="1.1" viewBox="0 0 283 278" width="283px" zoomAndPan="magnify"><defs><filter height="300%" id="fairv8j2m1txr" width="300%" x="-1" y="-1"><feGaussianBlur result="blurOut" stdDeviation="2.0"/><feColorMatrix in="blurOut" result="blurOut2" type="matrix" values="0 0 0 0 0 0 0 0 0 0 0 0 0 0 0 0 0 0 .4 0"/><feOffset dx="4.0" dy="4.0" in="blurOut2" result="blurOut3"/><feBlend in="SourceGraphic" in2="blurOut3" mode="normal"/></filter></defs><g><!--cluster Docker Host--><polygon fill="#FFFFFF" filter="url(#fairv8j2m1txr)" points="14,104,24,94,261,94,261,256,251,266,14,266,14,104" style="stroke: #000000; stroke-width: 1.5;"/><line style="stroke: #000000; stroke-width: 1.5;" x1="251" x2="260" y1="104" y2="95"/><line style="stroke: #000000; stroke-width: 1.5;" x1="14" x2="251" y1="104" y2="104"/><line style="stroke: #000000; stroke-width: 1.5;" x1="251" x2="251" y1="104" y2="266"/><text fill="#000000" font-family="sans-serif" font-size="14" font-weight="bold" lengthAdjust="spacingAndGlyphs" textLength="97" x="85" y="119.9951">Docker Host</text><!--entity Archive--><rect fill="#FEFECE" filter="url(#fairv8j2m1txr)" height="36.2969" style="stroke: #A80036; stroke-width: 1.5;" width="70" x="104" y="126"/><rect fill="#FEFECE" height="5" style="stroke: #A80036; stroke-width: 1.5;" width="10" x="99" y="131"/><rect fill="#FEFECE" height="5" style="stroke: #A80036; stroke-width: 1.5;" width="10" x="99" y="152.2969"/><text fill="#000000" font-family="sans-serif" font-size="14" lengthAdjust="spacingAndGlyphs" textLength="50" x="114" y="148.9951">Archive</text><!--entity PostgreSQL--><rect fill="#FEFECE" filter="url(#fairv8j2m1txr)" height="36.2969" style="stroke: #A80036; stroke-width: 1.5;" width="101" x="22.5" y="222"/><rect fill="#FEFECE" height="5" style="stroke: #A80036; stroke-width: 1.5;" width="10" x="17.5" y="227"/><rect fill="#FEFECE" height="5" style="stroke: #A80036; stroke-width: 1.5;" width="10" x="17.5" y="248.2969"/><text fill="#000000" font-family="sans-serif" font-size="14" lengthAdjust="spacingAndGlyphs" textLength="81" x="32.5" y="244.9951">PostgreSQL</text><!--entity OpenLDAP--><rect fill="#FEFECE" filter="url(#fairv8j2m1txr)" height="36.2969" style="stroke: #A80036; stroke-width: 1.5;" width="94" x="159" y="222"/><rect fill="#FEFECE" height="5" style="stroke: #A80036; stroke-width: 1.5;" width="10" x="154" y="227"/><rect fill="#FEFECE" height="5" style="stroke: #A80036; stroke-width: 1.5;" width="10" x="154" y="248.2969"/><text fill="#000000" font-family="sans-serif" font-size="14" lengthAdjust="spacingAndGlyphs" textLength="74" x="169" y="244.9951">OpenLDAP</text><!--entity HTTP1--><ellipse cx="42" cy="37" fill="#FEFECE" filter="url(#fairv8j2m1txr)" rx="8" ry="8" style="stroke: #A80036; stroke-width: 2.0;"/><text fill="#000000" font-family="sans-serif" font-size="14" lengthAdjust="spacingAndGlyphs" textLength="55" x="14.5" y="66.9951">HTTP(s)</text><!--entity HL7--><ellipse cx="139" cy="37" fill="#FEFECE" filter="url(#fairv8j2m1txr)" rx="8" ry="8" style="stroke: #A80036; stroke-width: 2.0;"/><text fill="#000000" font-family="sans-serif" font-size="14" lengthAdjust="spacingAndGlyphs" textLength="26" x="126" y="66.9951">HL7</text><!--entity DICOM--><ellipse cx="232" cy="37" fill="#FEFECE" filter="url(#fairv8j2m1txr)" rx="8" ry="8" style="stroke: #A80036; stroke-width: 2.0;"/><text fill="#000000" font-family="sans-serif" font-size="14" lengthAdjust="spacingAndGlyphs" textLength="47" x="208.5" y="66.9951">DICOM</text><!--link Archive to PostgreSQL--><path d="M126.5859,162.0569 C115.7769,177.7791 100.0617,200.6375 88.443,217.5375 " fill="none" id="Archive-PostgreSQL" style="stroke: #A80036; stroke-width: 1.0;"/><polygon fill="#A80036" points="85.5828,221.6977,93.9777,216.5475,88.4155,217.5775,87.3854,212.0152,85.5828,221.6977" style="stroke: #A80036; stroke-width: 1.0;"/><!--link Archive to OpenLDAP--><path d="M151.6022,162.0569 C162.575,177.7791 178.5283,200.6375 190.323,217.5375 " fill="none" id="Archive-OpenLDAP" style="stroke: #A80036; stroke-width: 1.0;"/><polygon fill="#A80036" points="193.2265,221.6977,191.3559,212.0281,190.365,217.5975,184.7956,216.6065,193.2265,221.6977" style="stroke: #A80036; stroke-width: 1.0;"/><!--link HL7 to Archive--><path d="M139,46.1228 C139,63.7101 139,102.6065 139,125.72 " fill="none" id="HL7-Archive" style="stroke: #A80036; stroke-width: 1.0;"/><!--link DICOM to Archive--><path d="M224.0709,46.1228 C208.7847,63.7101 174.9775,102.6065 154.8882,125.72 " fill="none" id="DICOM-Archive" style="stroke: #A80036; stroke-width: 1.0;"/><!--link HTTP1 to Archive--><path d="M50.2702,46.1228 C66.2138,63.7101 101.475,102.6065 122.4284,125.72 " fill="none" id="HTTP1-Archive" style="stroke: #A80036; stroke-width: 1.0;"/><!--
@startuml
node "Docker Host" {
[Archive] - -> [PostgreSQL]
[Archive] - -> [OpenLDAP]
}
() "HTTP(s)" as HTTP1
HL7 - - Archive
DICOM - - Archive
HTTP1 - - Archive
@enduml

PlantUML version 1.2018.11(Sat Sep 22 18:43:53 CEST 2018)
(GPL source distribution)
Java Runtime: OpenJDK Runtime Environment
JVM: OpenJDK 64-Bit Server VM
Java Version: 1.8.0_152-release-1248-b8
Operating System: Linux
OS Version: 4.15.0-36-generic
Default Encoding: UTF-8
Language: en
Country: US
--></g></svg>